<svg width="274" height="184" viewBox="0 0 274 184" fill="none" xmlns="http://www.w3.org/2000/svg">
<path d="M58.9641 61.9819C58.9641 76.8716 50.5428 84.8298 34.7657 84.8298H5.54883V0.0612488H35.5734C53.0004 0.0612488 62.556 9.06361 62.556 25.1855C62.556 34.8039 58.9297 42.3001 52.4848 46.168C56.5751 49.3685 58.9641 54.8451 58.9641 61.9819ZM44.8369 26.743C44.8369 20.017 41.6231 16.8165 34.9719 16.8165H23.2507V36.7208H34.9719C41.6231 36.7208 44.8369 33.4519 44.8369 26.743ZM41.3136 60.8523C41.3136 55.2558 38.8216 52.6714 33.4251 52.6714H23.2507V68.9134H33.4251C38.8216 68.9134 41.3136 66.3289 41.3136 60.8523Z" fill="#5EB88A"/>
<path d="M95.1758 16.8165V35.5228H122.468V51.4392H95.1758V68.9134H126.421V84.8298H77.5254V0.0612488H126.421V16.8165H95.1758Z" fill="#5EB88A"/>
<path d="M179.939 67.7666H158.868L154.812 84.8812H136.973L156.6 6.32524H182.379L201.886 84.8812H184.029L179.939 67.7666ZM176.192 51.85L169.455 23.3201L162.581 51.85H176.192Z" fill="#5EB88A"/>
<path d="M274 6.27386V78.6172H255.318L232.684 37.5422V78.6172H215.051V6.27386H234.248L256.35 46.8867V6.27386H274Z" fill="#5EB88A"/>
<path d="M64.9792 98.4189L41.726 149.763V177.06H24.0757V149.882L0.719238 98.5386H19.5213L32.9093 131.416L46.1946 98.5386L64.9792 98.4189Z" fill="#423828"/>
<path d="M104.628 166.124H83.5579L79.5019 183.239H61.542L81.1689 104.683H106.949L126.455 183.239H108.598L104.628 166.124ZM100.882 150.208L94.1445 121.678L87.27 150.208H100.882Z" fill="#423828"/>
<path d="M179.939 183.17L157.305 155.889V183.17H139.654V104.614H167.479C185.129 104.614 194.565 113.514 194.565 130.047C194.565 143.276 188.137 151.85 176.605 154.64L199.343 183.17H179.939ZM166.963 121.369H157.305V140.589H166.963C173.597 140.589 176.931 137.491 176.931 130.971C176.931 124.45 173.735 121.369 166.998 121.369H166.963Z" fill="#423828"/>
<path d="M272.746 137.286V150.515C272.746 171.806 261.643 183.17 240.676 183.17H212.765V104.614H240.676C261.643 104.614 272.746 115.995 272.746 137.286ZM255.112 137.286C255.112 127.017 249.956 121.369 240.676 121.369H230.364V167.254H240.676C250.025 167.254 255.112 161.674 255.112 151.234V137.286Z" fill="#423828"/>
</svg>
